# xmcd
#
# Track frame offsets:
# 150
# 16869
# 29166
# 42462
# 59975
# 80597
# 90377
# 107077
# 115777
# 129900
# 141429
# 153648
# 170690
# 193265
# 218497
# 233704
# 249857
# 256798
# 277761
# 286816
# 301517
#
# Disc length: 4162 seconds
#
#
# Revision: 4
# Processed by: cddbd v1.5.2PL0 Copyright (c) Steve Scherf et al.
# Submitted via: FreeRIP 2.951 
#
DISCID=20104015
DTITLE=Renato Russo - The Stonewall Celebration Concert
DYEAR=1997
DGENRE=Pop
TTITLE0=Send In The Clowns
TTITLE1=Clothes Of Sand
TTITLE2=Cathedral Song
TTITLE3=Love Is
TTITLE4=Cherish
TTITLE5=Miss Celie's Blues
TTITLE6=The Ballad Of The Sad Young Men
TTITLE7=If I Loved You
TTITLE8=And So It Goes
TTITLE9=I Get Along Without You Very Well
TTITLE10=Somewhere In My Broken Heart
TTITLE11=If You See Him, Say Hello
TTITLE12=If Tomorrow Never Comes
TTITLE13=The Heart Of The Matter
TTITLE14=Old Friend
TTITLE15=Say It Isn't So
TTITLE16=Let's Face The Music And Dance
TTITLE17=Somewhere
TTITLE18=Paper Of Pins
TTITLE19=When You Wish Upon A Star
TTITLE20=Close The Door Lightly When You Go
EXTD=
EXTT0=Stephen Sonheim
EXTT1=Nick Drake
EXTT2=Tanita Tikaran
EXTT3=
EXTT4=
EXTT5=
EXTT6=
EXTT7=
EXTT8=
EXTT9=
EXTT10=
EXTT11=
EXTT12=
EXTT13=
EXTT14=
EXTT15=
EXTT16=
EXTT17=
EXTT18=
EXTT19=
EXTT20=
PLAYORDER=
